<svg xmlns="http://www.w3.org/2000/svg" width="1408.517" height="421.493" viewBox="0 0 372.672 111.521" fill="#545456" xmlns:v="https://vecta.io/nano"><path d="M49.48 111.22A55.92 55.92 0 0 1 7.554 83.876C.746 72.225-1.601 58.013 1.089 44.728A55.69 55.69 0 0 1 44.726 1.091 56.22 56.22 0 0 1 84.333 7.83c16.92 10.079 27.188 28.187 27.188 47.944 0 26.645-18.6 49.398-44.704 54.683-5.193 1.052-12.163 1.358-17.338.763zm12.298-8.406c13.82-1.809 26.068-9.506 33.76-21.217 1.785-2.717 4.024-7.315 5.096-10.466 1.751-5.145 2.48-9.662 2.48-15.356 0-7.668-1.475-14.09-4.786-20.834C91.28 20.583 77.659 10.818 61.776 8.736c-3.018-.396-8.979-.396-12.009-.002-13.805 1.798-26.064 9.503-33.76 21.218-1.791 2.727-4.025 7.319-5.108 10.502-1.749 5.14-2.468 9.603-2.468 15.321 0 7.686 1.467 14.074 4.786 20.834 7.012 14.284 20.577 24.049 36.4 26.202 2.756.375 9.308.377 12.161.004zm10.876-8.834c-2.661-3.214-6.784-10.702-7.68-13.948-.749-2.712-1.248-6.058-1.254-8.412-.007-2.528.135-2.986 1.714-5.543 1.017-1.646 1.42-2.762 1.575-4.353 1.079-11.129 1.131-11.826.892-12.113-.134-.161-.342-.293-.464-.293s-.786-.267-1.476-.594c-1.437-.68-1.717-.551-1.236.572.168.392.3 1.249.297 1.924-.011 2.512-1.947 5.429-7.096 10.692-4.347 4.444-6.846 6.353-12.748 9.739-3.149 1.807-11.091 5.736-11.258 5.569-.134-.134 3.444-7.46 5.073-10.387 3.214-5.775 5.164-8.439 9.143-12.494 6.752-6.882 9.998-8.867 13.167-8.054 1.499.384 1.577.376 1.456-.145-.154-.664-1.041-2.692-1.282-2.933-.153-.153-1.818-.063-5.941.321-7.271.677-8.269.868-10.028 1.915-3.289 1.959-3.458 2.016-5.961 2-3.955-.026-8.6-1.063-11.996-2.679-5.311-2.528-11.845-6.841-11.415-7.536.486-.786 14.636-1.021 21.542-.358 4.675.449 12.108 1.507 18.121 2.58 5.632 1.005 5.962 1.03 6.139.471.07-.22.036-.511-.076-.646s-1.181-.717-2.376-1.294c-1.793-.866-2.317-1.223-2.999-2.044-1.355-1.631-1.422-1.858-.16-.54 1.197 1.25 2.556 1.991 3.654 1.991.621 0 .614-.211-.032-.978-.339-.403-.678-1.239-.976-2.411-.638-2.504-.456-2.581.34-.144l.667 2.041 1.174.64c2.057 1.121 2.246.869 1.261-1.686-.586-1.52-.593-1.58-.375-3.172.122-.893.254-1.655.293-1.694s.029.709-.021 1.663l-.092 1.733 1.13 1.663 1.13 1.663 1.578-.066c.868-.036 1.957.036 2.421.161 1.184.319 1.29.132.901-1.58-.534-2.347-.017-3.966 1.592-4.982.48-.303.999-.796 1.154-1.095.347-.672.838-.947 1.688-.947.79 0 1.423.412 1.823 1.186.164.316.427.575.586.575s.288.126.288.28.286.476.636.715c.968.662 2.268 1.942 2.913 2.868.318.457.707.831.863.831s.284.13.284.288.259.422.575.586c1.292.668 1.623 2.275.648 3.144-.624.556-.963.898-2.075 2.095-1.142 1.229-2.299 1.5-4.347 1.017-1.771-.417-1.971-.309-1.648.891.123.458.196 1.547.161 2.421l-.063 1.588 1.663 1.113c1.524 1.02 1.761 1.116 2.837 1.149l1.174.036-1.135.183c-1.035.167-1.27.13-2.684-.415-2.556-.986-2.822-.788-1.693 1.261l.646 1.174 2.139.716c2.467.826 2.356.949-.252.28-1.162-.298-2.02-.645-2.411-.974-1.074-.904-1.283-.568-.714 1.152.317.959.624 1.401 1.681 2.417 1.367 1.315 1.169 1.275-.484-.099-.821-.682-1.178-1.206-2.044-2.999-1.148-2.377-1.353-2.639-1.922-2.458-.587.186-.61.485-.199 2.572 1.227 6.222 2.733 16.395 3.21 21.694.418 4.646.586 14.019.311 17.411-.351 4.327-.586 4.705-1.922 3.091zm7.715-45.181c.132-.054.397-.057.587-.007s.082.093-.241.097-.479-.037-.346-.09zM260.08 37.073c-8.253-.003-12.865 1.142-15.627 3.879-1.271 1.259-1.863 2.306-2.41 4.262l-.334 1.195-.051 16.136.052 19.912.103 3.776 2.859-.041 2.859-.041.039-8.85.039-8.85.405-.102c.474-.119 24.955.056 25.156.18.078.048.135 3.783.135 8.865l.1 8.881h0c.055.055 1.391.1 2.971.1 2.611 0 2.877-.024 2.934-.261.034-.144.019-9.103-.035-19.908-.109-22.005-.03-20.508-1.214-22.988-2.027-4.246-7.573-6.142-17.978-6.145zm-114.2.019c-4.568.003-7.721.392-10.537 1.275-3.836 1.202-5.998 3.325-6.997 6.871-.328 1.165-.331 1.256-.38 15.141-.06 16.941-.014 17.67 1.284 20.319 1.868 3.812 6.356 5.687 14.634 6.116l2.576.134c1.002.053 6.667-.304 8.059-.508 5.449-.8 8.738-2.613 10.218-5.633 1.299-2.651 1.345-3.388 1.252-19.831-.075-13.081-.091-13.732-.385-15.09-1.33-6.136-6.15-8.528-17.675-8.772l-2.048-.022zm161.06.024c-3.984-.03-7.815.34-10.403 1.031-5.169 1.381-7.582 4.043-8.132 8.975-.203 1.824-.206 6.155-.005 7.43.77 4.878 4.124 7.676 10.303 8.593 4 .594 15.85 2.626 16.584 2.845 2.131.634 3.609 1.886 4.18 3.542.631 1.828.549 6.363-.149 8.227-.598 1.598-1.625 2.575-3.418 3.249-3.429 1.29-12.023 1.51-16.36.418-2.177-.548-3.596-1.464-4.314-2.783-.715-1.313-.88-2.259-.984-5.639l-.097-3.138-2.794-.041c-2.671-.039-2.801-.027-2.956.261-.237.443.062 7.088.38 8.446.662 2.827 2.391 4.985 5.015 6.26 2.24 1.088 5.941 1.876 9.768 2.078a85.58 85.58 0 0 0 8.217-.055c5.772-.436 9.155-1.58 11.433-3.867 1.72-1.726 2.375-3.354 2.705-6.72.218-2.231.083-6.762-.241-8.079-.676-2.744-2.353-4.779-5.029-6.102-2.04-1.009-3.279-1.287-11.082-2.489-10.663-1.643-11.861-1.898-13.199-2.815-.848-.58-1.605-1.741-1.835-2.811-.197-.918-.202-4.64-.008-5.979.583-4.033 3.081-5.519 10.024-5.964 2.859-.183 6.423-.083 8.561.241 2.256.342 3.907 1.025 4.995 2.067 1.249 1.195 1.653 2.431 1.768 5.4.064 1.663.129 2.13.318 2.279.278.219 5.203.265 5.54.052s.146-5.272-.262-6.813c-1.412-5.325-5.606-7.458-15.756-8.012a58.93 58.93 0 0 0-2.769-.086zm-128.91.406c-2.445-.002-2.734.024-2.85.259-.071.144-.083 8.991-.028 19.759.098 19.137.106 19.524.417 20.917.919 4.116 3.407 6.486 7.977 7.6 2.3.561 3.552.683 7.067.687 2.781.003 3.673-.048 4.676-.268 3.419-.751 6.005-2.151 7.598-4.114.376-.463.729-.86.784-.881s.357.297.671.708c1.922 2.52 5.658 4.261 9.931 4.627h0c.793.068 2.382.093 3.533.055 9.111-.296 13.188-2.912 14.206-9.111.214-1.305.239-3.628.219-20.659l-.098-19.311c-.041-.067-1.371-.122-2.955-.122h-2.88l-.099 9.885-.1 18.863c-.001 5.384-.062 9.353-.153 9.917-.475 2.928-1.995 4.499-5.043 5.215-.937.22-1.792.27-4.588.268-3.117-.002-3.545-.033-4.605-.339-1.53-.441-2.275-.825-3.065-1.58-1.08-1.033-1.566-2.221-1.82-4.451-.076-.664-.145-9.364-.153-19.334l-.211-18.289c-.129-.107-1.126-.149-2.94-.122l-2.745.041-.033 18.377-.191 19.598c-.412 3.193-1.64 4.787-4.352 5.647-2.291.727-6.861.873-9.618.307-2.942-.604-4.309-1.804-5.111-4.485-.252-.842-.268-2.07-.268-20.138l-.224-19.383c-.123-.078-1.449-.142-2.946-.144zm160.67.026c-3.157-.012-3.374.052-3.502.219-.17.223-.193.722-.12 2.592.05 1.274.092 12.06.094 23.969l.169 21.854c.131.158.762.192 2.947.16l2.78-.041.075-6.947.075-6.947 9.413-.006c6.764-.004 9.77-.059 10.683-.194 3.512-.52 6.152-1.621 7.978-3.325 1.848-1.726 2.752-3.482 3.145-6.104.314-2.097.327-13.256.018-15.396-.632-4.38-3.23-7.332-7.683-8.728-2.631-.825-2.859-.839-16.597-1.007l-9.475-.099zm-77.196 4.325c4.068-.002 6.493.369 8.324 1.238 1.716.815 2.584 1.843 3.16 3.741.32 1.054.458 16.034.149 16.131-.328.103-19.876.184-22.757.095l-2.689-.083-.041-2.54c-.022-1.397.019-4.893.093-7.769.116-4.569.17-5.344.429-6.141 1.075-3.315 3.936-4.473 11.487-4.648l1.847-.023zm-113.32.004c4.246.009 6.551.414 8.483 1.428 1.812.951 2.744 2.348 3.101 4.645.104.67.141 5.581.108 14.527-.044 12.226-.074 13.597-.305 14.378-.862 2.914-2.626 4.141-6.939 4.829-1.721.274-8.268.407-10.193.206-3.37-.351-5.442-1.082-6.744-2.379-.926-.923-1.347-1.829-1.645-3.539-.279-1.601-.084-27.268.217-28.611.553-2.468 1.835-3.779 4.495-4.599 1.921-.592 3.584-.784 7.479-.865l1.943-.02zm206.92.528c3.724-.001 4.413.056 5.233.24 2.503.564 4.369 1.805 5.271 3.505.989 1.863 1.005 2.002 1.003 8.851v6.2l-.406 1.195c-.893 2.626-2.515 4.065-5.418 4.806-.635.162-1.903.247-4.334.288-7.278.124-15.191.138-15.26.027-.117-.19-.057-24.826.061-24.942.06-.058 4.109-.128 8.998-.153l4.852-.018z"/></svg>